<svg width="24" height="24" viewBox="0 0 24 24" fill="none" xmlns="http://www.w3.org/2000/svg">
<path d="M21.7132 20.883C19.5719 22.2112 16.6273 17.4299 17.4306 18.2267C18.2335 19.0236 20.7763 18.8909 22.784 16.8986C25.3271 14.3751 23.199 10.9348 22.5165 10.2575C22.1152 9.85907 21.312 9.06223 20.6427 9.72643C20.1075 10.2575 20.2412 10.6562 20.6427 11.0546C24.0129 14.3991 20.1504 15.8359 19.3043 15.8359C18.5011 15.8359 16.3598 15.8359 16.3598 12.9138C16.3598 10.523 19.0365 9.68312 19.0365 7.02655C19.0367 0.65152 12.0771 0.873747 12.0771 0.873747H11.504C10.2572 0.902453 4.88848 1.44193 4.88848 7.06986C4.88848 9.72618 7.60362 10.523 7.60362 12.9138C7.60362 15.8359 5.48148 15.8359 4.67826 15.8359C3.83165 15.8359 -0.0206157 14.3989 3.34937 11.0546C3.75086 10.6562 3.88951 10.2575 3.35411 9.72643C2.6848 9.06223 1.88432 9.85932 1.48284 10.2575C0.800311 10.9348 -1.32682 14.3751 1.21626 16.8986C3.22394 18.8909 5.76751 19.0236 6.57048 18.2267C7.3737 17.4299 4.42939 22.2115 2.28805 20.883C1.52922 20.4237 1.21726 21.1488 1.21726 21.1488C1.21726 21.1488 0.282369 22.156 2.05938 23.0081C2.05938 23.0081 4.27229 24.3362 12.0028 17.6954V17.7016H12.0771C19.8397 24.3832 21.9813 23.011 21.9813 23.011C23.4738 22.4035 22.7843 21.1501 22.7843 21.1501C22.7843 21.1501 22.4763 20.4237 21.7132 20.883Z" fill="#current"/>
</svg>
