<svg width="640" height="640" viewBox="0 0 640 640" fill="none" xmlns="http://www.w3.org/2000/svg">
<rect width="640" height="640" fill="#3F3F46"/>
<path fill-rule="evenodd" clip-rule="evenodd" d="M320 289.535L382.691 277.132C397.989 274.105 409 260.818 409 245.386C409 224.956 390.106 209.633 369.855 213.64L324.58 222.597C308.979 225.684 297.75 239.234 297.75 254.972V343.847C291.205 340.102 283.605 337.958 275.5 337.958C250.923 337.958 231 357.667 231 381.979C231 406.291 250.923 426 275.5 426C300.077 426 320 406.291 320 381.979V289.535ZM374.218 235.223L328.943 244.18C323.743 245.209 320 249.726 320 254.972V267.088L378.328 255.548C383.225 254.58 386.75 250.326 386.75 245.386C386.75 238.845 380.701 233.94 374.218 235.223ZM297.75 381.979C297.75 369.823 287.788 359.968 275.5 359.968C263.212 359.968 253.25 369.823 253.25 381.979C253.25 394.135 263.212 403.989 275.5 403.989C287.788 403.989 297.75 394.135 297.75 381.979Z" fill="#27272A"/>
</svg>
