<svg width="56" height="56" viewBox="0 0 56 56" fill="none" xmlns="http://www.w3.org/2000/svg">
<rect width="56" height="56" fill="#E4E4E7"/>
<path fill-rule="evenodd" clip-rule="evenodd" d="M28 24.9545L33.6352 23.8274C35.0102 23.5524 36 22.3451 36 20.9428C36 19.0865 34.3017 17.6942 32.4813 18.0582L28.4117 18.8722C27.0094 19.1526 26 20.3839 26 21.8139V29.8896C25.4117 29.5493 24.7286 29.3545 24 29.3545C21.7909 29.3545 20 31.1453 20 33.3545C20 35.5636 21.7909 37.3545 24 37.3545C26.2091 37.3545 28 35.5636 28 33.3545V24.9545ZM32.8736 20.0194L28.8039 20.8333C28.3365 20.9268 28 21.3372 28 21.8139V22.9149L33.2429 21.8663C33.6831 21.7782 34 21.3917 34 20.9428C34 20.3486 33.4563 19.9028 32.8736 20.0194ZM26 33.3545C26 32.2499 25.1046 31.3545 24 31.3545C22.8954 31.3545 22 32.2499 22 33.3545C22 34.4591 22.8954 35.3545 24 35.3545C25.1046 35.3545 26 34.4591 26 33.3545Z" fill="#D4D4D8"/>
</svg>
