<svg width="24" height="24" viewBox="0 0 24 24" fill="none" xmlns="http://www.w3.org/2000/svg">
<path d="M16.9738 6.40209H6.87471L7.96878 5.3706C8.12725 5.22003 8.21628 5.01581 8.21628 4.80288C8.21628 4.58994 8.12725 4.38573 7.96878 4.23516C7.8103 4.08459 7.59536 4 7.37125 4C7.14713 4 6.93219 4.08459 6.77372 4.23516L4.24894 6.63397C4.17006 6.7083 4.10745 6.79674 4.06472 6.89418C4.022 6.99162 4 7.09613 4 7.20169C4 7.30725 4.022 7.41176 4.06472 7.5092C4.10745 7.60664 4.17006 7.69508 4.24894 7.76941L6.77372 10.1682C6.85195 10.2432 6.94503 10.3027 7.04759 10.3432C7.15015 10.3838 7.26015 10.4047 7.37125 10.4047C7.48235 10.4047 7.59235 10.3838 7.6949 10.3432C7.79746 10.3027 7.89054 10.2432 7.96878 10.1682C8.04766 10.0939 8.11027 10.0055 8.15299 9.90801C8.19572 9.81057 8.21772 9.70606 8.21772 9.6005C8.21772 9.49495 8.19572 9.39043 8.15299 9.29299C8.11027 9.19556 8.04766 9.10712 7.96878 9.03278L6.87471 8.00129H16.9738C17.1462 7.99811 17.3176 8.02724 17.4782 8.087C17.6388 8.14677 17.7854 8.23601 17.9096 8.34961C18.0339 8.46322 18.1334 8.59898 18.2024 8.74913C18.2714 8.89927 18.3087 9.06087 18.3119 9.22469V11.1997C18.3119 11.4118 18.4006 11.6152 18.5584 11.7651C18.7163 11.9151 18.9303 11.9993 19.1535 11.9993C19.3767 11.9993 19.5908 11.9151 19.7486 11.7651C19.9065 11.6152 19.9951 11.4118 19.9951 11.1997V9.22469C19.9918 8.85087 19.911 8.48132 19.7574 8.13716C19.6038 7.79299 19.3803 7.48095 19.0998 7.21884C18.8192 6.95674 18.4871 6.7497 18.1223 6.60956C17.7575 6.46942 17.3673 6.39892 16.9738 6.40209ZM17.2263 13.8304C17.0678 13.6798 16.8529 13.5953 16.6288 13.5953C16.4046 13.5953 16.1897 13.6798 16.0312 13.8304C15.8727 13.981 15.7837 14.1852 15.7837 14.3981C15.7837 14.6111 15.8727 14.8153 16.0312 14.9659L17.1253 15.9973H7.02619C6.85378 16.0005 6.68239 15.9714 6.52182 15.9116C6.36125 15.8519 6.21464 15.7626 6.09038 15.649C5.96612 15.5354 5.86663 15.3997 5.7976 15.2495C5.72857 15.0994 5.69135 14.9378 5.68806 14.7739V12.7989C5.68806 12.5869 5.5994 12.3835 5.44157 12.2335C5.28374 12.0836 5.06968 11.9993 4.84647 11.9993C4.62327 11.9993 4.40921 12.0836 4.25138 12.2335C4.09355 12.3835 4.00488 12.5869 4.00488 12.7989V14.7739C4.00818 15.1478 4.08895 15.5173 4.24258 15.8615C4.3962 16.2056 4.61967 16.5177 4.90023 16.7798C5.18079 17.0419 5.51294 17.2489 5.87771 17.3891C6.24249 17.5292 6.63274 17.5997 7.02619 17.5965H17.1253L16.0312 18.628C15.9523 18.7024 15.8897 18.7908 15.847 18.8882C15.8043 18.9857 15.7823 19.0902 15.7823 19.1958C15.7823 19.3013 15.8043 19.4058 15.847 19.5033C15.8897 19.6007 15.9523 19.6891 16.0312 19.7635C16.1095 19.8384 16.2025 19.8979 16.3051 19.9385C16.4077 19.9791 16.5177 20 16.6288 20C16.7399 20 16.8499 19.9791 16.9524 19.9385C17.055 19.8979 17.148 19.8384 17.2263 19.7635L19.7511 17.3647C19.8299 17.2903 19.8925 17.2019 19.9353 17.1045C19.978 17.007 20 16.9025 20 16.7969C20 16.6914 19.978 16.5869 19.9353 16.4894C19.8925 16.392 19.8299 16.3036 19.7511 16.2292L17.2263 13.8304Z" fill="current"/>
</svg>
