<svg width="24" height="24" viewBox="0 0 24 24" fill="none" xmlns="http://www.w3.org/2000/svg">
<path d="M19.4482 8.27588H15.8539C15.4192 8.27575 14.9888 8.36135 14.5872 8.52778C14.1856 8.69421 13.8207 8.93821 13.5135 9.24581L8.0043 14.7551C7.38314 15.3756 6.54105 15.7241 5.66305 15.7242H2.06885" stroke="white" stroke-width="2" stroke-miterlimit="10"/>
<path d="M2.06885 8.27588H5.66305C6.54112 8.27588 7.38278 8.62429 8.00347 9.24581L13.5127 14.7551C14.1334 15.3758 14.9753 15.7247 15.8531 15.725H19.4482" stroke="white" stroke-width="2" stroke-miterlimit="10"/>
<path d="M17.7932 10.2719V6.27961C17.7932 5.97505 18.1251 5.78636 18.3866 5.94195L21.74 7.93809C21.7985 7.97284 21.8469 8.0222 21.8805 8.08132C21.9142 8.14045 21.9319 8.2073 21.9319 8.27533C21.9319 8.34336 21.9142 8.41022 21.8805 8.46934C21.8469 8.52847 21.7985 8.57782 21.74 8.61257L18.3866 10.6087C18.327 10.6443 18.2591 10.6634 18.1898 10.6642C18.1205 10.6649 18.0521 10.6473 17.9918 10.6131C17.9315 10.5788 17.8814 10.5292 17.8465 10.4693C17.8116 10.4093 17.7932 10.3412 17.7932 10.2719ZM17.7932 17.7202V13.7287C17.7932 13.4242 18.1251 13.2355 18.3866 13.3911L21.74 15.3872C21.7985 15.4219 21.8469 15.4713 21.8805 15.5304C21.9142 15.5896 21.9319 15.6564 21.9319 15.7244C21.9319 15.7925 21.9142 15.8593 21.8805 15.9184C21.8469 15.9776 21.7985 16.0269 21.74 16.0617L18.3866 18.0578C18.3269 18.0931 18.259 18.112 18.1897 18.1126C18.1204 18.1132 18.0521 18.0955 17.9919 18.0612C17.9317 18.0269 17.8815 17.9773 17.8466 17.9174C17.8118 17.8575 17.7933 17.7895 17.7932 17.7202V17.7202Z" fill="white"/>
</svg>
