<svg width="24" height="24" viewBox="0 0 24 24" fill="none" xmlns="http://www.w3.org/2000/svg">
<path d="M19.4483 8.27588H15.8541C15.4194 8.27575 14.9889 8.36135 14.5873 8.52778C14.1857 8.69421 13.8208 8.93821 13.5137 9.24581L8.00442 14.7551C7.38326 15.3756 6.54118 15.7241 5.66318 15.7242H2.06897" stroke="white" stroke-width="2" stroke-miterlimit="10"/>
<path d="M2.06897 8.27588H5.66318C6.54125 8.27588 7.3829 8.62429 8.00359 9.24581L13.5128 14.7551C14.1335 15.3758 14.9754 15.7247 15.8532 15.725H19.4483" stroke="white" stroke-width="2" stroke-miterlimit="10"/>
<path d="M17.7931 10.2719V6.27961C17.7931 5.97505 18.125 5.78636 18.3865 5.94195L21.7398 7.93809C21.7983 7.97284 21.8468 8.0222 21.8804 8.08132C21.9141 8.14045 21.9318 8.2073 21.9318 8.27533C21.9318 8.34336 21.9141 8.41022 21.8804 8.46934C21.8468 8.52847 21.7983 8.57782 21.7398 8.61257L18.3865 10.6087C18.3269 10.6443 18.259 10.6634 18.1897 10.6642C18.1203 10.6649 18.052 10.6473 17.9917 10.6131C17.9314 10.5788 17.8813 10.5292 17.8464 10.4693C17.8115 10.4093 17.7931 10.3412 17.7931 10.2719ZM17.7931 17.7202V13.7287C17.7931 13.4242 18.125 13.2355 18.3865 13.3911L21.7398 15.3872C21.7983 15.4219 21.8468 15.4713 21.8804 15.5304C21.9141 15.5896 21.9318 15.6564 21.9318 15.7244C21.9318 15.7925 21.9141 15.8593 21.8804 15.9184C21.8468 15.9776 21.7983 16.0269 21.7398 16.0617L18.3865 18.0578C18.3268 18.0931 18.2589 18.112 18.1896 18.1126C18.1203 18.1132 18.052 18.0955 17.9918 18.0612C17.9315 18.0269 17.8814 17.9773 17.8465 17.9174C17.8116 17.8575 17.7932 17.7895 17.7931 17.7202Z" fill="white"/>
</svg>
